<svg width="218" height="39" viewBox="0 0 218 39" fill="none" xmlns="http://www.w3.org/2000/svg">
<g clip-path="url(#clip0_1902_165)">
<path d="M17.9986 6.53472L35.5997 1.34912L30.464 19.0001L35.5997 36.6012L17.9986 31.4655L0.347656 36.6012L5.53325 19.0001L0.347656 1.34912L17.9986 6.53472Z" fill="black"/>
</g>
<path d="M62.8864 15.1591C62.697 14.5455 62.4356 13.9962 62.1023 13.5114C61.7765 13.0189 61.3826 12.5985 60.9205 12.25C60.4659 11.9015 59.9432 11.6402 59.3523 11.4659C58.7614 11.2841 58.1174 11.1932 57.4205 11.1932C56.1705 11.1932 55.0568 11.5076 54.0795 12.1364C53.1023 12.7652 52.3333 13.6894 51.7727 14.9091C51.2197 16.1212 50.9432 17.5985 50.9432 19.3409C50.9432 21.0985 51.2197 22.5871 51.7727 23.8068C52.3258 25.0265 53.0947 25.9545 54.0795 26.5909C55.0644 27.2197 56.2083 27.5341 57.5114 27.5341C58.6932 27.5341 59.7159 27.3068 60.5795 26.8523C61.4508 26.3977 62.1212 25.7538 62.5909 24.9205C63.0606 24.0795 63.2955 23.0947 63.2955 21.9659L64.25 22.1136H57.9318V18.8182H67.375V21.6136C67.375 23.6061 66.9508 25.3295 66.1023 26.7841C65.2538 28.2386 64.0871 29.3598 62.6023 30.1477C61.1174 30.928 59.4129 31.3182 57.4886 31.3182C55.3447 31.3182 53.4621 30.8371 51.8409 29.875C50.2273 28.9053 48.9659 27.5303 48.0568 25.75C47.1553 23.9621 46.7045 21.8409 46.7045 19.3864C46.7045 17.5076 46.9697 15.8295 47.5 14.3523C48.0379 12.875 48.7879 11.6212 49.75 10.5909C50.7121 9.55303 51.8409 8.76515 53.1364 8.22727C54.4318 7.68182 55.8409 7.40909 57.3636 7.40909C58.6515 7.40909 59.8523 7.59848 60.9659 7.97727C62.0795 8.34848 63.0682 8.87879 63.9318 9.56818C64.803 10.2576 65.5189 11.0758 66.0795 12.0227C66.6402 12.9697 67.0076 14.0152 67.1818 15.1591H62.8864ZM82.3949 23.6591V13.5455H86.5085V31H82.5199V27.8977H82.3381C81.9441 28.875 81.2964 29.6742 80.3949 30.2955C79.5009 30.9167 78.3987 31.2273 77.0881 31.2273C75.9441 31.2273 74.9328 30.9735 74.054 30.4659C73.1828 29.9508 72.5009 29.2045 72.0085 28.2273C71.5161 27.2424 71.2699 26.053 71.2699 24.6591V13.5455H75.3835V24.0227C75.3835 25.1288 75.6866 26.0076 76.2926 26.6591C76.8987 27.3106 77.6941 27.6364 78.679 27.6364C79.285 27.6364 79.8722 27.4886 80.4403 27.1932C81.0085 26.8977 81.4744 26.4583 81.8381 25.875C82.2093 25.2841 82.3949 24.5455 82.3949 23.6591ZM95.7614 31.3523C94.6553 31.3523 93.6591 31.1553 92.7727 30.7614C91.8939 30.3598 91.197 29.7689 90.6818 28.9886C90.1742 28.2083 89.9205 27.2462 89.9205 26.1023C89.9205 25.1174 90.1023 24.303 90.4659 23.6591C90.8295 23.0152 91.3258 22.5 91.9545 22.1136C92.5833 21.7273 93.2917 21.4356 94.0795 21.2386C94.875 21.0341 95.697 20.8864 96.5455 20.7955C97.5682 20.6894 98.3977 20.5947 99.0341 20.5114C99.6705 20.4205 100.133 20.2841 100.42 20.1023C100.716 19.9129 100.864 19.6212 100.864 19.2273V19.1591C100.864 18.303 100.61 17.6402 100.102 17.1705C99.5947 16.7008 98.8636 16.4659 97.9091 16.4659C96.9015 16.4659 96.1023 16.6856 95.5114 17.125C94.928 17.5644 94.5341 18.0833 94.3295 18.6818L90.4886 18.1364C90.7917 17.0758 91.2917 16.1894 91.9886 15.4773C92.6856 14.7576 93.5379 14.2197 94.5455 13.8636C95.553 13.5 96.6667 13.3182 97.8864 13.3182C98.7273 13.3182 99.5644 13.4167 100.398 13.6136C101.231 13.8106 101.992 14.1364 102.682 14.5909C103.371 15.0379 103.924 15.6477 104.341 16.4205C104.765 17.1932 104.977 18.1591 104.977 19.3182V31H101.023V28.6023H100.886C100.636 29.0871 100.284 29.5417 99.8295 29.9659C99.3826 30.3826 98.8182 30.7197 98.1364 30.9773C97.4621 31.2273 96.6705 31.3523 95.7614 31.3523ZM96.8295 28.3295C97.6553 28.3295 98.3712 28.1667 98.9773 27.8409C99.5833 27.5076 100.049 27.0682 100.375 26.5227C100.708 25.9773 100.875 25.3826 100.875 24.7386V22.6818C100.746 22.7879 100.527 22.8864 100.216 22.9773C99.9129 23.0682 99.572 23.1477 99.1932 23.2159C98.8144 23.2841 98.4394 23.3447 98.0682 23.3977C97.697 23.4508 97.375 23.4962 97.1023 23.5341C96.4886 23.6174 95.9394 23.7538 95.4545 23.9432C94.9697 24.1326 94.5871 24.3977 94.3068 24.7386C94.0265 25.072 93.8864 25.5038 93.8864 26.0341C93.8864 26.7917 94.1629 27.3636 94.7159 27.75C95.2689 28.1364 95.9735 28.3295 96.8295 28.3295ZM109.114 31V13.5455H113.102V16.4545H113.284C113.602 15.447 114.148 14.6705 114.92 14.125C115.701 13.572 116.591 13.2955 117.591 13.2955C117.818 13.2955 118.072 13.3068 118.352 13.3295C118.64 13.3447 118.879 13.3712 119.068 13.4091V17.1932C118.894 17.1326 118.617 17.0795 118.239 17.0341C117.867 16.9811 117.508 16.9545 117.159 16.9545C116.409 16.9545 115.735 17.1174 115.136 17.4432C114.545 17.7614 114.08 18.2045 113.739 18.7727C113.398 19.3409 113.227 19.9962 113.227 20.7386V31H109.114ZM127.56 31.3068C126.188 31.3068 124.961 30.9545 123.878 30.25C122.795 29.5455 121.938 28.5227 121.31 27.1818C120.681 25.8409 120.366 24.2121 120.366 22.2955C120.366 20.3561 120.685 18.7197 121.321 17.3864C121.965 16.0455 122.832 15.0341 123.923 14.3523C125.014 13.6629 126.23 13.3182 127.571 13.3182C128.594 13.3182 129.435 13.4924 130.094 13.8409C130.753 14.1818 131.276 14.5947 131.662 15.0795C132.048 15.5568 132.348 16.0076 132.56 16.4318H132.73V7.72727H136.855V31H132.81V28.25H132.56C132.348 28.6742 132.041 29.125 131.639 29.6023C131.238 30.072 130.707 30.4735 130.048 30.8068C129.389 31.1402 128.56 31.3068 127.56 31.3068ZM128.707 27.9318C129.579 27.9318 130.321 27.697 130.935 27.2273C131.548 26.75 132.014 26.0871 132.332 25.2386C132.651 24.3902 132.81 23.4015 132.81 22.2727C132.81 21.1439 132.651 20.1629 132.332 19.3295C132.022 18.4962 131.56 17.8485 130.946 17.3864C130.34 16.9242 129.594 16.6932 128.707 16.6932C127.791 16.6932 127.026 16.9318 126.412 17.4091C125.798 17.8864 125.336 18.5455 125.026 19.3864C124.715 20.2273 124.56 21.1894 124.56 22.2727C124.56 23.3636 124.715 24.3371 125.026 25.1932C125.344 26.0417 125.81 26.7121 126.423 27.2045C127.045 27.6894 127.806 27.9318 128.707 27.9318ZM141.239 31V13.5455H145.352V31H141.239ZM143.307 11.0682C142.655 11.0682 142.095 10.8523 141.625 10.4205C141.155 9.98106 140.92 9.45454 140.92 8.84091C140.92 8.2197 141.155 7.69318 141.625 7.26136C142.095 6.82197 142.655 6.60227 143.307 6.60227C143.966 6.60227 144.527 6.82197 144.989 7.26136C145.458 7.69318 145.693 8.2197 145.693 8.84091C145.693 9.45454 145.458 9.98106 144.989 10.4205C144.527 10.8523 143.966 11.0682 143.307 11.0682ZM154.605 31.3523C153.499 31.3523 152.503 31.1553 151.616 30.7614C150.738 30.3598 150.041 29.7689 149.526 28.9886C149.018 28.2083 148.764 27.2462 148.764 26.1023C148.764 25.1174 148.946 24.303 149.31 23.6591C149.673 23.0152 150.17 22.5 150.798 22.1136C151.427 21.7273 152.135 21.4356 152.923 21.2386C153.719 21.0341 154.541 20.8864 155.389 20.7955C156.412 20.6894 157.241 20.5947 157.878 20.5114C158.514 20.4205 158.976 20.2841 159.264 20.1023C159.56 19.9129 159.707 19.6212 159.707 19.2273V19.1591C159.707 18.303 159.454 17.6402 158.946 17.1705C158.438 16.7008 157.707 16.4659 156.753 16.4659C155.745 16.4659 154.946 16.6856 154.355 17.125C153.772 17.5644 153.378 18.0833 153.173 18.6818L149.332 18.1364C149.635 17.0758 150.135 16.1894 150.832 15.4773C151.529 14.7576 152.382 14.2197 153.389 13.8636C154.397 13.5 155.51 13.3182 156.73 13.3182C157.571 13.3182 158.408 13.4167 159.241 13.6136C160.075 13.8106 160.836 14.1364 161.526 14.5909C162.215 15.0379 162.768 15.6477 163.185 16.4205C163.609 17.1932 163.821 18.1591 163.821 19.3182V31H159.866V28.6023H159.73C159.48 29.0871 159.128 29.5417 158.673 29.9659C158.226 30.3826 157.662 30.7197 156.98 30.9773C156.306 31.2273 155.514 31.3523 154.605 31.3523ZM155.673 28.3295C156.499 28.3295 157.215 28.1667 157.821 27.8409C158.427 27.5076 158.893 27.0682 159.219 26.5227C159.552 25.9773 159.719 25.3826 159.719 24.7386V22.6818C159.59 22.7879 159.37 22.8864 159.06 22.9773C158.757 23.0682 158.416 23.1477 158.037 23.2159C157.658 23.2841 157.283 23.3447 156.912 23.3977C156.541 23.4508 156.219 23.4962 155.946 23.5341C155.332 23.6174 154.783 23.7538 154.298 23.9432C153.813 24.1326 153.431 24.3977 153.151 24.7386C152.87 25.072 152.73 25.5038 152.73 26.0341C152.73 26.7917 153.007 27.3636 153.56 27.75C154.113 28.1364 154.817 28.3295 155.673 28.3295ZM172.071 20.7727V31H167.957V13.5455H171.889V16.5114H172.094C172.495 15.5341 173.135 14.7576 174.014 14.1818C174.901 13.6061 175.995 13.3182 177.298 13.3182C178.503 13.3182 179.552 13.5758 180.446 14.0909C181.348 14.6061 182.045 15.3523 182.537 16.3295C183.037 17.3068 183.283 18.4924 183.276 19.8864V31H179.162V20.5227C179.162 19.3561 178.859 18.4432 178.253 17.7841C177.654 17.125 176.825 16.7955 175.764 16.7955C175.045 16.7955 174.404 16.9545 173.844 17.2727C173.291 17.5833 172.855 18.0341 172.537 18.625C172.226 19.2159 172.071 19.9318 172.071 20.7727ZM190.628 31H186.128L194.321 7.72727H199.526L207.73 31H203.23L197.014 12.5H196.832L190.628 31ZM190.776 21.875H203.048V25.2614H190.776V21.875ZM215.011 7.72727V31H210.795V7.72727H215.011Z" fill="black"/>
<defs>
<clipPath id="clip0_1902_165">
<rect width="36" height="36" fill="white" transform="translate(0 1)"/>
</clipPath>
</defs>
</svg>
